# xmcd
#
# Track frame offsets: 
#        150
#        12344
#        23535
#        38067
#        54235
#        66715
#        83458
#        98044
#        116231
#        137456
#        155155
#        174812
#        186686
#
# Disc length: 2722 seconds
#
# Revision: 0
# Processed by: cddbd v1.5.2PL0 Copyright (c) Steve Scherf et al.
# Submitted via: ExactAudioCopy v0.99pb5
#
DISCID=a50aa00d
DTITLE=Bob Wayne - Outlaw Carnie
DYEAR=2011
DGENRE=Country
TTITLE0=Road Bound
TTITLE1=Estacata
TTITLE2=Mack
TTITLE3=Ghost Town
TTITLE4=Reptile
TTITLE5=Love Songs Suck
TTITLE6=Everything's Legal In Alabama (feat. Wayne Hancock)
TTITLE7=Gold
TTITLE8=Blood To Dust
TTITLE9=Driven By Demons
TTITLE10=Work Of The Devil
TTITLE11=Chatterbox
TTITLE12=2012
EXTD=
EXTT0=
EXTT1=
EXTT2=
EXTT3=
EXTT4=
EXTT5=
EXTT6=
EXTT7=
EXTT8=
EXTT9=
EXTT10=
EXTT11=
EXTT12=
PLAYORDER=
